# xmcd
# Copyright (C) 1995-1998 Ti Kan
#
# Track frame offsets:
#       150
#       9230
#       25292
#       35631
#
# Disc length: 630 seconds
#
# Revision: 3
# Processed by: cddbd v1.5.2PL0 Copyright (c) Steve Scherf et al.
# Submitted via: CD-Import v1.0
#
DISCID=25027404
DTITLE=Who - Lied Der Woche
DYEAR=71
DGENRE=
TTITLE0=Summertime Blues
TTITLE1=Summertime Blues
TTITLE2=Summertime Blues
TTITLE3=Summertime Blues
EXTD=
EXTT0=
EXTT1=
EXTT2=
EXTT3=
PLAYORDER=
